<?xml version="1.0" encoding="UTF-8"?>
<svg xmlns="http://www.w3.org/2000/svg" viewBox="0 0 1400 1136" width="1400" height="1136">
  <defs>
    <style>
      .title { font: bold 24px sans-serif; fill: #1a1a1a; }
      .subtitle { font: 14px sans-serif; fill: #666; }
      .section-title { font: bold 14px sans-serif; fill: #333; }
      .component { font: 12px sans-serif; fill: #333; }
      .component-detail { font: 10px sans-serif; fill: #666; }
      .wire-12v { stroke: #c00; stroke-width: 2.5; fill: none; }
      .wire-5v { stroke: #090; stroke-width: 2; fill: none; }
      .wire-usb { stroke: #00c; stroke-width: 2; fill: none; }
      .wire-gpio { stroke: #0a0; stroke-width: 1.5; fill: none; }
      .wire-i2c { stroke: #a0a; stroke-width: 1.5; fill: none; }
      .wire-1wire { stroke: #c60; stroke-width: 1.5; fill: none; stroke-dasharray: 4,2; }
      .wire-uart { stroke: #069; stroke-width: 1.5; fill: none; }
      .wire-eth { stroke: #069; stroke-width: 2.5; fill: none; }
      .wire-rf { stroke: #f80; stroke-width: 2; fill: none; stroke-dasharray: 8,4; }
      .enclosure { fill: #f5f5f5; stroke: #999; stroke-width: 2; rx: 10; }
      .enclosure-outdoor { fill: #e8f5e9; stroke: #4caf50; stroke-width: 2; rx: 10; }
      .box { fill: #fff; stroke: #333; stroke-width: 1.5; rx: 5; }
      .box-power { fill: #ffebee; stroke: #c62828; stroke-width: 1.5; rx: 5; }
      .box-compute { fill: #e3f2fd; stroke: #1565c0; stroke-width: 1.5; rx: 5; }
      .box-camera { fill: #fff3e0; stroke: #e65100; stroke-width: 1.5; rx: 5; }
      .box-camera-teal { fill: #e0f2f1; stroke: #00695c; stroke-width: 1.5; rx: 5; }
      .box-sensor { fill: #f3e5f5; stroke: #6a1b9a; stroke-width: 1.5; rx: 5; }
      .box-ui { fill: #e8f5e9; stroke: #2e7d32; stroke-width: 1.5; rx: 5; }
      .connector { fill: #666; }
      .led-green { fill: #4caf50; }
      .led-yellow { fill: #ffc107; }
      .led-red { fill: #f44336; }
      .arrow { fill: #333; }
    </style>
    <marker id="arr" markerWidth="10" markerHeight="7" refX="9" refY="3.5" orient="auto">
      <polygon points="0 0, 10 3.5, 0 7" class="arrow"/>
    </marker>
    <marker id="arr-red" markerWidth="10" markerHeight="7" refX="9" refY="3.5" orient="auto">
      <polygon points="0 0, 10 3.5, 0 7" fill="#c00"/>
    </marker>
    <marker id="arr-grn" markerWidth="10" markerHeight="7" refX="9" refY="3.5" orient="auto">
      <polygon points="0 0, 10 3.5, 0 7" fill="#090"/>
    </marker>
    <marker id="arr-blu" markerWidth="10" markerHeight="7" refX="9" refY="3.5" orient="auto">
      <polygon points="0 0, 10 3.5, 0 7" fill="#00c"/>
    </marker>
    <marker id="arr-teal" markerWidth="10" markerHeight="7" refX="9" refY="3.5" orient="auto">
      <polygon points="0 0, 10 3.5, 0 7" fill="#069"/>
    </marker>
  </defs>

  <!-- Background -->
  <rect width="1400" height="1116" fill="#fafafa"/>

  <!-- Title -->
  <text x="700" y="35" class="title" text-anchor="middle">Sukabumi River Monitoring Station - System Overview</text>
  <text x="700" y="55" class="subtitle" text-anchor="middle">Solar-Powered PoE Camera System | OpenRiverCam Indonesia Spring 2026</text>

  <!-- ==================== -->
  <!-- MAIN ENCLOSURE -->
  <!-- ==================== -->
  <rect x="30" y="75" width="820" height="605" class="enclosure"/>
  <text x="50" y="100" class="section-title">VEVOR COMPUTE ENCLOSURE (IP66, 16x12x8in, DIN rail mounting)</text>

  <!-- ==================== -->
  <!-- POWER SECTION -->
  <!-- ==================== -->
  <rect x="50" y="115" width="280" height="250" class="box-power"/>
  <text x="190" y="140" class="section-title" text-anchor="middle">POWER (Solar, Existing at Site)</text>

  <!-- Solar Panel -->
  <rect x="70" y="155" width="100" height="45" class="box"/>
  <text x="120" y="175" class="component" text-anchor="middle">200W Solar</text>
  <text x="120" y="190" class="component-detail" text-anchor="middle">Panel</text>

  <!-- Charge Controller -->
  <rect x="70" y="210" width="100" height="35" class="box"/>
  <text x="120" y="232" class="component" text-anchor="middle">Charge Ctrl</text>

  <!-- Battery -->
  <rect x="185" y="155" width="130" height="50" class="box"/>
  <text x="250" y="177" class="component" text-anchor="middle">12V 50Ah</text>
  <text x="250" y="192" class="component-detail" text-anchor="middle">LiFePO4 Battery</text>

  <!-- TB1 -->
  <rect x="185" y="220" width="130" height="40" class="box"/>
  <text x="250" y="240" class="component" text-anchor="middle">TB1 Distribution</text>
  <text x="250" y="255" class="component-detail" text-anchor="middle">12V bus</text>

  <!-- DDR-60G-5 -->
  <rect x="70" y="275" width="120" height="50" class="box"/>
  <text x="130" y="297" class="component" text-anchor="middle">DDR-60G-5</text>
  <text x="130" y="312" class="component-detail" text-anchor="middle">12V→5V 10.8A</text>

  <!-- DDR-60G-12 -->
  <rect x="200" y="275" width="120" height="50" class="box"/>
  <text x="260" y="297" class="component" text-anchor="middle">DDR-60G-12</text>
  <text x="260" y="312" class="component-detail" text-anchor="middle">12V→12V reg</text>

  <!-- Power connections -->
  <line x1="120" y1="200" x2="120" y2="210" class="wire-12v"/>
  <line x1="170" y1="180" x2="185" y2="180" class="wire-12v"/>
  <line x1="250" y1="205" x2="250" y2="220" class="wire-12v"/>
  <line x1="130" y1="260" x2="130" y2="275" class="wire-12v"/>
  <line x1="260" y1="260" x2="260" y2="275" class="wire-12v"/>
  <text x="100" y="270" class="component-detail" fill="#c00">12V</text>
  <text x="270" y="270" class="component-detail" fill="#c00">12V</text>

  <!-- ==================== -->
  <!-- COMPUTE STACK -->
  <!-- ==================== -->
  <rect x="350" y="115" width="230" height="270" class="box-compute"/>
  <text x="465" y="140" class="section-title" text-anchor="middle">COMPUTE STACK</text>

  <!-- Raspberry Pi 5 -->
  <rect x="370" y="155" width="190" height="60" class="box"/>
  <text x="465" y="177" class="component" text-anchor="middle">Raspberry Pi 5 (8GB)</text>
  <text x="465" y="192" class="component-detail" text-anchor="middle">ML-2020 RTC + Rainbow Sensing</text>
  <text x="465" y="204" class="component-detail" text-anchor="middle">5V USB-C powered</text>

  <!-- Pi-EzConnect -->
  <rect x="370" y="225" width="190" height="45" class="box"/>
  <text x="465" y="247" class="component" text-anchor="middle">Pi-EzConnect (ID 2711)</text>
  <text x="465" y="262" class="component-detail" text-anchor="middle">GPIO Screw Terminals</text>

  <!-- USB Drive -->
  <rect x="370" y="280" width="190" height="40" class="box"/>
  <text x="465" y="300" class="component" text-anchor="middle">Samsung FIT Plus 256GB</text>
  <text x="465" y="313" class="component-detail" text-anchor="middle">USB 3.1 flash drive (IP67)</text>

  <!-- Modem -->
  <rect x="370" y="330" width="190" height="40" class="box"/>
  <text x="465" y="350" class="component" text-anchor="middle">Quectel EG25-G</text>
  <text x="465" y="363" class="component-detail" text-anchor="middle">LTE Cat 4 + EXVIST mPCIe-USB</text>

  <!-- Power to compute stack (5V direct to Pi 5 via USB-C) -->
  <line x1="190" y1="300" x2="370" y2="185" class="wire-5v" marker-end="url(#arr-grn)"/>
  <text x="240" y="285" class="component-detail" fill="#090">5V</text>

  <!-- Pi to USB drive -->
  <line x1="445" y1="215" x2="445" y2="280" class="wire-usb"/>
  <text x="430" y="258" class="component-detail" fill="#00c">USB3</text>

  <!-- Pi to modem -->
  <line x1="485" y1="215" x2="485" y2="330" class="wire-usb"/>
  <text x="490" y="275" class="component-detail" fill="#00c">USB2</text>

  <!-- ==================== -->
  <!-- LTE ANTENNA -->
  <!-- ==================== -->
  <rect x="600" y="115" width="235" height="130" class="box"/>
  <text x="717" y="140" class="section-title" text-anchor="middle">LTE ANTENNA</text>

  <!-- Puck Antenna -->
  <rect x="620" y="155" width="195" height="40" class="box"/>
  <text x="717" y="175" class="component" text-anchor="middle">Proxicast ANT-122-S02</text>
  <text x="717" y="190" class="component-detail" text-anchor="middle">2x2 MIMO Puck (IP67, 12mm mount)</text>

  <!-- SMA cables internal -->
  <rect x="620" y="205" width="195" height="30" class="box"/>
  <text x="717" y="225" class="component" text-anchor="middle">2x SMA pigtails (internal)</text>

  <!-- Antenna connections -->
  <line x1="560" y1="350" x2="600" y2="350" class="wire-usb"/>
  <line x1="600" y1="350" x2="600" y2="220" class="wire-rf"/>
  <line x1="600" y1="220" x2="620" y2="220" class="wire-rf"/>
  <text x="605" y="290" class="component-detail" fill="#f80">RF</text>

  <!-- ==================== -->
  <!-- CAMERA SECTION -->
  <!-- ==================== -->
  <rect x="600" y="260" width="235" height="200" class="box-camera"/>
  <text x="717" y="285" class="section-title" text-anchor="middle">PoE CAMERA SYSTEM</text>

  <!-- Relay -->
  <rect x="620" y="300" width="100" height="45" class="box"/>
  <text x="670" y="320" class="component" text-anchor="middle">RELAY-POE</text>
  <text x="670" y="335" class="component-detail" text-anchor="middle">GPIO-triggered (IN1-IN4)</text>

  <!-- PoE Switch -->
  <rect x="620" y="355" width="195" height="50" class="box"/>
  <text x="717" y="377" class="component" text-anchor="middle">LINOVISION PoE Switch</text>
  <text x="717" y="392" class="component-detail" text-anchor="middle">Industrial Gigabit, 12V input</text>

  <!-- Ethernet to Pi -->
  <rect x="620" y="415" width="195" height="35" class="box"/>
  <text x="717" y="437" class="component" text-anchor="middle">Uplink → Pi ETH (data only)</text>

  <!-- Power to relay -->
  <line x1="320" y1="300" x2="350" y2="300" class="wire-12v"/>
  <line x1="350" y1="300" x2="350" y2="480" class="wire-12v"/>
  <line x1="350" y1="480" x2="600" y2="480" class="wire-12v"/>
  <line x1="600" y1="480" x2="600" y2="322" class="wire-12v"/>
  <line x1="600" y1="322" x2="620" y2="322" class="wire-12v" marker-end="url(#arr-red)"/>
  <text x="430" y="475" class="component-detail" fill="#c00">12V regulated</text>

  <!-- Relay to PoE switch -->
  <line x1="670" y1="345" x2="670" y2="355" class="wire-12v"/>
  <text x="678" y="352" class="component-detail" fill="#c00">switched</text>

  <!-- GPIO to relay (via Pi-EzConnect breakout) -->
  <line x1="560" y1="195" x2="590" y2="195" class="wire-gpio"/>
  <line x1="590" y1="195" x2="590" y2="310" class="wire-gpio"/>
  <line x1="590" y1="310" x2="620" y2="310" class="wire-gpio"/>
  <text x="592" y="255" class="component-detail" fill="#0a0">GPIO</text>

  <!-- Ethernet from PoE uplink to Pi -->
  <line x1="620" y1="432" x2="560" y2="432" class="wire-eth"/>
  <line x1="560" y1="432" x2="560" y2="195" class="wire-eth"/>
  <line x1="560" y1="195" x2="560" y2="185" class="wire-eth" marker-end="url(#arr-teal)"/>
  <text x="565" y="380" class="component-detail" fill="#069">ETH</text>

  <!-- ==================== -->
  <!-- OUTDOOR CAMERA -->
  <!-- ==================== -->
  <rect x="880" y="260" width="280" height="200" class="enclosure-outdoor"/>
  <text x="900" y="285" class="section-title">OUTDOOR - Camera</text>

  <rect x="900" y="300" width="240" height="100" class="box-camera-teal"/>
  <text x="1020" y="325" class="section-title" text-anchor="middle">ANNKE C1200</text>
  <text x="1020" y="345" class="component" text-anchor="middle">12MP PoE IP Camera (IP67)</text>
  <text x="1020" y="362" class="component-detail" text-anchor="middle">134deg FOV | Built-in IR LEDs</text>
  <text x="1020" y="378" class="component-detail" text-anchor="middle">RTSP stream | ~12W draw</text>
  <text x="1020" y="394" class="component-detail" text-anchor="middle">Stainless pole mount bracket</text>

  <rect x="900" y="410" width="240" height="35" class="box"/>
  <text x="1020" y="432" class="component" text-anchor="middle">Cat6 outdoor shielded + IP68 coupler</text>

  <!-- PoE to camera -->
  <line x1="815" y1="380" x2="860" y2="380" class="wire-eth"/>
  <line x1="860" y1="380" x2="860" y2="350" class="wire-eth"/>
  <line x1="860" y1="350" x2="900" y2="350" class="wire-eth" marker-end="url(#arr-teal)"/>
  <text x="862" y="370" class="component-detail" fill="#069">PoE</text>

  <!-- ==================== -->
  <!-- SENSORS -->
  <!-- ==================== -->
  <rect x="50" y="380" width="280" height="140" class="box-sensor"/>
  <text x="190" y="405" class="section-title" text-anchor="middle">SENSORS</text>

  <!-- SHT40 -->
  <rect x="70" y="415" width="125" height="45" class="box"/>
  <text x="132" y="435" class="component" text-anchor="middle">SHT40</text>
  <text x="132" y="450" class="component-detail" text-anchor="middle">I2C 0x44 (inside)</text>

  <!-- DS18B20 -->
  <rect x="205" y="415" width="110" height="45" class="box"/>
  <text x="260" y="435" class="component" text-anchor="middle">DS18B20</text>
  <text x="260" y="450" class="component-detail" text-anchor="middle">1-Wire (outside)</text>

  <!-- Rain gauge -->
  <rect x="70" y="470" width="245" height="40" class="box"/>
  <text x="192" y="490" class="component" text-anchor="middle">Hydreon RG-15 Rain Gauge</text>
  <text x="192" y="503" class="component-detail" text-anchor="middle">UART (GPIO 14/15) | 12V from TB1 | outdoor</text>

  <!-- I2C to SHT40 -->
  <line x1="370" y1="242" x2="350" y2="242" class="wire-i2c"/>
  <line x1="350" y1="242" x2="350" y2="370" class="wire-i2c"/>
  <line x1="350" y1="370" x2="195" y2="370" class="wire-i2c"/>
  <line x1="195" y1="370" x2="195" y2="415" class="wire-i2c"/>
  <line x1="195" y1="415" x2="195" y2="437" class="wire-i2c"/>
  <text x="280" y="365" class="component-detail" fill="#a0a">I2C</text>

  <!-- 1-Wire to DS18B20 -->
  <line x1="370" y1="252" x2="340" y2="252" class="wire-1wire"/>
  <line x1="340" y1="252" x2="340" y2="380" class="wire-1wire"/>
  <line x1="340" y1="380" x2="260" y2="380" class="wire-1wire"/>
  <line x1="260" y1="380" x2="260" y2="415" class="wire-1wire"/>
  <text x="305" y="378" class="component-detail" fill="#c60">1-Wire</text>

  <!-- UART to rain gauge -->
  <line x1="370" y1="262" x2="330" y2="262" class="wire-uart"/>
  <line x1="330" y1="262" x2="330" y2="490" class="wire-uart"/>
  <line x1="330" y1="490" x2="315" y2="490" class="wire-uart"/>
  <text x="320" y="450" class="component-detail" fill="#069">UART</text>

  <!-- ==================== -->
  <!-- STATUS & UI -->
  <!-- ==================== -->
  <rect x="50" y="530" width="280" height="140" class="box-ui"/>
  <text x="190" y="555" class="section-title" text-anchor="middle">STATUS &amp; MAINTENANCE</text>

  <!-- LEDs -->
  <circle cx="85" cy="585" r="10" class="led-green"/>
  <text x="100" y="590" class="component">Green (GPIO 17 → Relay CH2)</text>
  <circle cx="85" cy="610" r="10" class="led-yellow"/>
  <text x="100" y="615" class="component">Yellow (GPIO 27 → Relay CH3)</text>
  <circle cx="85" cy="635" r="10" class="led-red"/>
  <text x="100" y="640" class="component">Red (GPIO 22 → Relay CH4)</text>

  <!-- Maintenance Button -->
  <rect x="220" y="575" width="95" height="55" class="box"/>
  <text x="267" y="600" class="component" text-anchor="middle">IP67 Button</text>
  <text x="267" y="615" class="component-detail" text-anchor="middle">GPIO 23</text>
  <text x="267" y="627" class="component-detail" text-anchor="middle">3s = maint</text>

  <!-- Power Button -->
  <rect x="115" y="645" width="200" height="20" class="box"/>
  <text x="215" y="659" class="component-detail" text-anchor="middle">Power Button / Pi 5 J2 / on&#x2F;off&#x2F;force-off</text>

  <!-- GPIO to LEDs/button -->
  <line x1="370" y1="245" x2="355" y2="245" class="wire-gpio"/>
  <line x1="355" y1="245" x2="355" y2="555" class="wire-gpio"/>
  <line x1="355" y1="555" x2="330" y2="555" class="wire-gpio"/>
  <line x1="330" y1="555" x2="330" y2="585" class="wire-gpio"/>
  <line x1="330" y1="585" x2="95" y2="585" class="wire-gpio"/>
  <line x1="330" y1="610" x2="95" y2="610" class="wire-gpio"/>
  <line x1="330" y1="635" x2="95" y2="635" class="wire-gpio"/>
  <line x1="330" y1="600" x2="220" y2="600" class="wire-gpio"/>
  <text x="358" y="500" class="component-detail" fill="#0a0">GPIO</text>

  <!-- ==================== -->
  <!-- LEGEND -->
  <!-- ==================== -->
  <rect x="880" y="75" width="280" height="175" class="box" fill="#fff"/>
  <text x="1020" y="100" class="section-title" text-anchor="middle">LEGEND</text>

  <line x1="900" y1="120" x2="950" y2="120" class="wire-12v"/>
  <text x="960" y="125" class="component">12V DC Power</text>

  <line x1="900" y1="140" x2="950" y2="140" class="wire-5v"/>
  <text x="960" y="145" class="component">5V DC Power</text>

  <line x1="900" y1="160" x2="950" y2="160" class="wire-usb"/>
  <text x="960" y="165" class="component">USB Connection</text>

  <line x1="900" y1="180" x2="950" y2="180" class="wire-eth"/>
  <text x="960" y="185" class="component">Ethernet / PoE</text>

  <line x1="900" y1="200" x2="950" y2="200" class="wire-gpio"/>
  <text x="960" y="205" class="component">GPIO Signal</text>

  <line x1="900" y1="220" x2="950" y2="220" class="wire-i2c"/>
  <text x="960" y="225" class="component">I2C Bus</text>

  <line x1="900" y1="240" x2="950" y2="240" class="wire-1wire"/>
  <text x="960" y="245" class="component">1-Wire Bus</text>

  <!-- ==================== -->
  <!-- POWER BUDGET -->
  <!-- ==================== -->
  <rect x="880" y="480" width="280" height="175" class="box" fill="#fffde7"/>
  <text x="1020" y="505" class="section-title" text-anchor="middle">POWER BUDGET</text>

  <text x="900" y="530" class="component">Raspberry Pi 5: 15W</text>
  <text x="900" y="550" class="component">Quectel modem: 5W</text>
  <text x="900" y="570" class="component">PoE camera: 12W</text>
  <text x="900" y="590" class="component">LEDs/sensors/misc: 2W</text>
  <text x="900" y="615" class="section-title">Active: ~34W</text>
  <text x="900" y="635" class="component">Sleep: ~1.5W (Pi halt state)</text>
  <text x="900" y="650" class="component-detail">Daily: ~94 Wh | Autonomy: ~3.2 days</text>

  <!-- ==================== -->
  <!-- ASSEMBLY NOTES -->
  <!-- ==================== -->
  <rect x="30" y="670" width="1130" height="225" class="box" fill="#fffde7"/>
  <text x="50" y="695" class="section-title">ASSEMBLY NOTES</text>

  <text x="50" y="718" class="component">1. Stack Order: Pi 5 (bottom) + Pi-EzConnect (top) - on DIN rail clip</text>
  <text x="50" y="738" class="component">2. Apply MG 422C silicone conformal coat to: Pi 5, Pi-EzConnect. Mask connectors/headers</text>
  <text x="50" y="758" class="component">3. DDR-60G-5: Regulated 5V for compute. DDR-60G-12: Regulated 12V for PoE switch (battery voltage varies 10-14V)</text>
  <text x="50" y="778" class="component">4. Relay: GPIO-triggered 4-CH SPDT (Electronics-Salon). GPIO 24=PoE, GPIO 17/27/22=LEDs. Software controls each channel independently</text>
  <text x="50" y="798" class="component">5. Proxicast puck antenna: 12mm hole in enclosure top, rubber gasket seal. Internal SMA pigtails to modem U.FL</text>
  <text x="50" y="818" class="component">6. SHT40 (inside enclosure) monitors climate. DS18B20 probe (outside, PG9 gland) for ambient temp/dew point</text>
  <text x="50" y="838" class="component">7. Pi 5 built-in RTC (ML-2020 coin cell) provides scheduling via Rainbow Sensing image</text>
  <text x="50" y="858" class="component">8. Gore M12 vent for pressure equalization. No heaters (solar power budget). Carrier: Telkomsel</text>
  <text x="50" y="878" class="component">9. External power button wired to Pi 5 J2 header (not GPIO). Press to power on/off; hold 5s to force-off</text>

  <!-- ==================== -->
  <!-- GPIO PIN TABLE -->
  <!-- ==================== -->
  <rect x="30" y="905" width="570" height="216" class="box" fill="#fff"/>
  <text x="50" y="930" class="section-title">GPIO PIN ASSIGNMENTS</text>

  <text x="50" y="952" class="component" font-family="monospace">GPIO  2  SDA        I2C      SHT40 sensor (0x44)</text>
  <text x="50" y="968" class="component" font-family="monospace">GPIO  3  SCL        I2C      SHT40 sensor</text>
  <text x="50" y="984" class="component" font-family="monospace">GPIO  4  DS18B20    1-Wire   Outside temp (4.7k pull-up)</text>
  <text x="50" y="1000" class="component" font-family="monospace">GPIO 14  UART TX    Serial   To Hydreon RG-15 RX</text>
  <text x="50" y="1016" class="component" font-family="monospace">GPIO 15  UART RX    Serial   From Hydreon RG-15 TX</text>
  <text x="50" y="1032" class="component" font-family="monospace">GPIO 17  Green LED  Output   System OK</text>
  <text x="50" y="1048" class="component" font-family="monospace">GPIO 22  Red LED    Output   Error</text>
  <text x="50" y="1064" class="component" font-family="monospace">GPIO 23  Button     Input    Maintenance mode (3s hold)</text>
  <text x="50" y="1080" class="component" font-family="monospace">GPIO 24  Relay IN1  Output   PoE switch (12V via relay)</text>
  <text x="50" y="1096" class="component" font-family="monospace">GPIO 27  Yellow LED Output   Working/uploading</text>

  <!-- ==================== -->
  <!-- FUSE SCHEDULE -->
  <!-- ==================== -->
  <rect x="620" y="905" width="540" height="90" class="box" fill="#fff"/>
  <text x="640" y="930" class="section-title">FUSE SCHEDULE</text>

  <text x="640" y="952" class="component">Compute circuit (DDR-60G-5): 5A inline blade fuse</text>
  <text x="640" y="972" class="component">Camera circuit (DDR-60G-12): 5A inline blade fuse</text>
  <text x="640" y="992" class="component">LEDs: 12V via relay CH2/3/4 | All DDR-60G: built-in OCP/OVP</text>

  <!-- Footer -->
  <text x="700" y="1131" class="subtitle" text-anchor="middle">OpenRiverCam - Sukabumi Site | Rev 3.1 | 2026-03-12</text>
</svg>
