<?xml version="1.0" encoding="UTF-8"?>
<svg xmlns="http://www.w3.org/2000/svg" viewBox="0 0 1500 1350" width="1500" height="1350">
  <defs>
    <style>
      .title { font: bold 24px sans-serif; fill: #1a1a1a; }
      .subtitle { font: 14px sans-serif; fill: #666; }
      .section-title { font: bold 14px sans-serif; fill: #333; }
      .component { font: 12px sans-serif; fill: #333; }
      .component-detail { font: 10px sans-serif; fill: #666; }
      .wire-ac { stroke: #c00; stroke-width: 3; fill: none; }
      .wire-12v { stroke: #f60; stroke-width: 2.5; fill: none; }
      .wire-5v { stroke: #090; stroke-width: 2; fill: none; }
      .wire-usb { stroke: #00c; stroke-width: 2; fill: none; }
      .wire-gpio { stroke: #0a0; stroke-width: 1.5; fill: none; }
      .wire-i2c { stroke: #a0a; stroke-width: 1.5; fill: none; }
      .wire-1wire { stroke: #c60; stroke-width: 1.5; fill: none; stroke-dasharray: 4,2; }
      .wire-uart { stroke: #069; stroke-width: 1.5; fill: none; }
      .wire-eth { stroke: #069; stroke-width: 2.5; fill: none; }
      .wire-rf { stroke: #f80; stroke-width: 2; fill: none; stroke-dasharray: 8,4; }
      .wire-gnd { stroke: #000; stroke-width: 2; fill: none; stroke-dasharray: 5,3; }
      .enclosure { fill: #f5f5f5; stroke: #999; stroke-width: 2; rx: 10; }
      .enclosure-outdoor { fill: #e8f5e9; stroke: #4caf50; stroke-width: 2; rx: 10; }
      .enclosure-battery { fill: #fff8e1; stroke: #ff8f00; stroke-width: 2; rx: 10; }
      .box { fill: #fff; stroke: #333; stroke-width: 1.5; rx: 5; }
      .box-ac { fill: #ffcdd2; stroke: #c00; stroke-width: 2; rx: 5; }
      .box-power { fill: #ffebee; stroke: #c62828; stroke-width: 1.5; rx: 5; }
      .box-battery { fill: #fff3e0; stroke: #e65100; stroke-width: 2; rx: 5; }
      .box-compute { fill: #e3f2fd; stroke: #1565c0; stroke-width: 1.5; rx: 5; }
      .box-camera { fill: #e0f2f1; stroke: #00695c; stroke-width: 1.5; rx: 5; }
      .box-sensor { fill: #f3e5f5; stroke: #6a1b9a; stroke-width: 1.5; rx: 5; }
      .box-ui { fill: #e8f5e9; stroke: #2e7d32; stroke-width: 1.5; rx: 5; }
      .box-heater { fill: #fce4ec; stroke: #c2185b; stroke-width: 1.5; rx: 5; }
      .connector { fill: #666; }
      .led-green { fill: #4caf50; }
      .led-yellow { fill: #ffc107; }
      .led-red { fill: #f44336; }
      .arrow { fill: #333; }
    </style>
    <marker id="arr" markerWidth="10" markerHeight="7" refX="9" refY="3.5" orient="auto">
      <polygon points="0 0, 10 3.5, 0 7" class="arrow"/>
    </marker>
    <marker id="arr-red" markerWidth="10" markerHeight="7" refX="9" refY="3.5" orient="auto">
      <polygon points="0 0, 10 3.5, 0 7" fill="#c00"/>
    </marker>
    <marker id="arr-org" markerWidth="10" markerHeight="7" refX="9" refY="3.5" orient="auto">
      <polygon points="0 0, 10 3.5, 0 7" fill="#f60"/>
    </marker>
    <marker id="arr-grn" markerWidth="10" markerHeight="7" refX="9" refY="3.5" orient="auto">
      <polygon points="0 0, 10 3.5, 0 7" fill="#090"/>
    </marker>
    <marker id="arr-blu" markerWidth="10" markerHeight="7" refX="9" refY="3.5" orient="auto">
      <polygon points="0 0, 10 3.5, 0 7" fill="#00c"/>
    </marker>
    <marker id="arr-teal" markerWidth="10" markerHeight="7" refX="9" refY="3.5" orient="auto">
      <polygon points="0 0, 10 3.5, 0 7" fill="#069"/>
    </marker>
  </defs>

  <!-- Background -->
  <rect width="1500" height="1350" fill="#fafafa"/>

  <!-- Title -->
  <text x="750" y="35" class="title" text-anchor="middle">Jakarta River Monitoring Station - System Overview</text>
  <text x="750" y="55" class="subtitle" text-anchor="middle">AC-Powered PoE Camera System with 24hr Battery Backup | OpenRiverCam Indonesia Spring 2026</text>

  <!-- ==================== -->
  <!-- AC INPUT SECTION -->
  <!-- ==================== -->
  <rect x="30" y="80" width="300" height="200" class="box-ac"/>
  <text x="50" y="105" class="section-title">AC INPUT (220V 50Hz)</text>

  <!-- Mains -->
  <rect x="50" y="120" width="90" height="40" class="box"/>
  <text x="95" y="140" class="component" text-anchor="middle">220V AC</text>
  <text x="95" y="155" class="component-detail" text-anchor="middle">Mains</text>

  <!-- MCB -->
  <rect x="50" y="175" width="90" height="35" class="box"/>
  <text x="95" y="197" class="component" text-anchor="middle">10A MCB</text>

  <!-- SPD -->
  <rect x="160" y="175" width="110" height="35" class="box"/>
  <text x="215" y="197" class="component" text-anchor="middle">Type 2 SPD</text>
  <text x="215" y="208" class="component-detail" text-anchor="middle">Phoenix Contact</text>

  <!-- Earth Rod -->
  <rect x="50" y="225" width="90" height="30" class="box"/>
  <text x="95" y="245" class="component" text-anchor="middle">Earth Rod</text>
  <text x="95" y="257" class="component-detail" text-anchor="middle">1.5m copper</text>

  <!-- AC connections -->
  <line x1="95" y1="160" x2="95" y2="175" class="wire-ac"/>
  <line x1="95" y1="210" x2="95" y2="225" class="wire-gnd"/>
  <line x1="140" y1="192" x2="160" y2="192" class="wire-ac"/>
  <line x1="270" y1="192" x2="350" y2="192" class="wire-ac" marker-end="url(#arr-red)"/>
  <text x="300" y="185" class="component-detail" fill="#c00">AC</text>

  <!-- ==================== -->
  <!-- DC POWER SYSTEM -->
  <!-- ==================== -->
  <rect x="350" y="80" width="330" height="200" class="box-power"/>
  <text x="370" y="105" class="section-title">DC POWER SYSTEM (12V Bus)</text>

  <!-- Mean Well PSU -->
  <rect x="370" y="125" width="140" height="60" class="box"/>
  <text x="440" y="148" class="component" text-anchor="middle">Mean Well</text>
  <text x="440" y="163" class="component" text-anchor="middle">SDR-120-12</text>
  <text x="440" y="178" class="component-detail" text-anchor="middle">12V 10A DIN Rail PSU</text>

  <!-- DDR-60G-5 -->
  <rect x="370" y="200" width="140" height="50" class="box"/>
  <text x="440" y="222" class="component" text-anchor="middle">DDR-60G-5</text>
  <text x="440" y="237" class="component-detail" text-anchor="middle">12V → 5V 10.8A</text>

  <!-- 12V Distribution -->
  <rect x="530" y="125" width="130" height="65" class="box"/>
  <text x="595" y="150" class="component" text-anchor="middle">12V Bus</text>
  <text x="595" y="168" class="component-detail" text-anchor="middle">Fused Distribution</text>
  <text x="595" y="183" class="component-detail" text-anchor="middle">(DIN terminal blocks)</text>

  <!-- Battery charger input -->
  <rect x="530" y="200" width="130" height="45" class="box"/>
  <text x="595" y="220" class="component" text-anchor="middle">Battery Charger</text>
  <text x="595" y="235" class="component-detail" text-anchor="middle">12V 10-20A LiFePO4</text>

  <!-- Power flow connections -->
  <line x1="350" y1="155" x2="370" y2="155" class="wire-ac"/>
  <line x1="510" y1="155" x2="530" y2="155" class="wire-12v"/>
  <text x="517" y="148" class="component-detail" fill="#f60">12V</text>
  <line x1="440" y1="185" x2="440" y2="200" class="wire-12v"/>
  <line x1="595" y1="190" x2="595" y2="200" class="wire-12v"/>

  <!-- ==================== -->
  <!-- EXTERNAL BATTERY BOX -->
  <!-- ==================== -->
  <rect x="700" y="80" width="280" height="200" class="enclosure-battery"/>
  <text x="720" y="105" class="section-title">EXTERNAL BATTERY BOX</text>
  <text x="720" y="120" class="component-detail">(Weatherproof marine box, separate from electronics)</text>

  <!-- LiFePO4 Battery -->
  <rect x="720" y="135" width="120" height="60" class="box-battery"/>
  <text x="780" y="162" class="component" text-anchor="middle">12V 100Ah</text>
  <text x="780" y="177" class="component" text-anchor="middle">LiFePO4</text>

  <!-- Victron BatteryProtect -->
  <rect x="720" y="210" width="120" height="50" class="box"/>
  <text x="780" y="232" class="component" text-anchor="middle">Victron BP</text>
  <text x="780" y="247" class="component-detail" text-anchor="middle">12/24V-65A LVD</text>

  <!-- Battery charger to battery -->
  <line x1="660" y1="222" x2="700" y2="222" class="wire-12v"/>
  <line x1="700" y1="222" x2="700" y2="165" class="wire-12v"/>
  <line x1="700" y1="165" x2="720" y2="165" class="wire-12v" marker-end="url(#arr-org)"/>
  <text x="700" y="195" class="component-detail" fill="#f60">charge</text>

  <!-- Battery to BP -->
  <line x1="780" y1="195" x2="780" y2="210" class="wire-12v"/>

  <!-- BP back to 12V bus -->
  <line x1="840" y1="235" x2="960" y2="235" class="wire-12v"/>
  <line x1="960" y1="235" x2="960" y2="80" class="wire-12v"/>
  <line x1="960" y1="80" x2="660" y2="80" class="wire-12v"/>
  <line x1="660" y1="80" x2="660" y2="155" class="wire-12v"/>
  <line x1="660" y1="155" x2="660" y2="155" class="wire-12v" marker-end="url(#arr-org)"/>
  <text x="870" y="230" class="component-detail" fill="#f60">backup (when AC fails)</text>

  <!-- ==================== -->
  <!-- MAIN ENCLOSURE -->
  <!-- ==================== -->
  <rect x="30" y="300" width="710" height="500" class="enclosure"/>
  <text x="50" y="325" class="section-title">VEVOR ELECTRONICS ENCLOSURE (IP66, 16x12x8in, DIN rail mounting)</text>
  <text x="50" y="340" class="component-detail">Wall mount: L-brackets + SS banding + EPDM pads on concrete wall</text>

  <!-- ==================== -->
  <!-- COMPUTE STACK -->
  <!-- ==================== -->
  <rect x="50" y="355" width="240" height="330" class="box-compute"/>
  <text x="170" y="380" class="section-title" text-anchor="middle">COMPUTE STACK</text>

  <!-- Witty Pi 5 -->
  <rect x="70" y="395" width="200" height="55" class="box"/>
  <text x="170" y="417" class="component" text-anchor="middle">Witty Pi 5 HAT+</text>
  <text x="170" y="432" class="component-detail" text-anchor="middle">Backup scheduling + power mgmt</text>
  <text x="170" y="444" class="component-detail" text-anchor="middle">5V pass-through to Pi</text>

  <!-- Raspberry Pi 5 -->
  <rect x="70" y="460" width="200" height="60" class="box"/>
  <text x="170" y="485" class="component" text-anchor="middle">Raspberry Pi 5 (8GB)</text>
  <text x="170" y="500" class="component-detail" text-anchor="middle">ML-2020 RTC (primary)</text>
  <text x="170" y="512" class="component-detail" text-anchor="middle">Rainbow Sensing image</text>

  <!-- G469 GPIO Breakout -->
  <rect x="70" y="530" width="200" height="45" class="box"/>
  <text x="170" y="552" class="component" text-anchor="middle">Geekworm G469</text>
  <text x="170" y="567" class="component-detail" text-anchor="middle">GPIO Terminal Breakout</text>

  <!-- USB Drive -->
  <rect x="70" y="585" width="200" height="35" class="box"/>
  <text x="170" y="607" class="component" text-anchor="middle">SanDisk 256GB USB Flash</text>

  <!-- Modem -->
  <rect x="70" y="630" width="200" height="40" class="box"/>
  <text x="170" y="650" class="component" text-anchor="middle">Quectel EG25-G</text>
  <text x="170" y="663" class="component-detail" text-anchor="middle">LTE Cat 4 + EXVIST mPCIe-USB</text>

  <!-- Power to compute -->
  <line x1="440" y1="250" x2="440" y2="310" class="wire-5v"/>
  <line x1="440" y1="310" x2="300" y2="310" class="wire-5v"/>
  <line x1="300" y1="310" x2="300" y2="420" class="wire-5v"/>
  <line x1="300" y1="420" x2="270" y2="420" class="wire-5v" marker-end="url(#arr-grn)"/>
  <text x="305" y="375" class="component-detail" fill="#090">5V</text>

  <!-- Witty to Pi -->
  <line x1="170" y1="450" x2="170" y2="460" class="wire-5v"/>
  <text x="180" y="458" class="component-detail" fill="#090">5V</text>

  <!-- Pi to USB drive -->
  <line x1="155" y1="520" x2="155" y2="585" class="wire-usb"/>
  <text x="140" y="560" class="component-detail" fill="#00c">USB3</text>

  <!-- Pi to modem -->
  <line x1="185" y1="520" x2="185" y2="630" class="wire-usb"/>
  <text x="190" y="580" class="component-detail" fill="#00c">USB2</text>

  <!-- ==================== -->
  <!-- LTE ANTENNA -->
  <!-- ==================== -->
  <rect x="310" y="355" width="200" height="110" class="box"/>
  <text x="410" y="380" class="section-title" text-anchor="middle">LTE ANTENNA</text>

  <!-- Puck -->
  <rect x="330" y="395" width="160" height="30" class="box"/>
  <text x="410" y="415" class="component" text-anchor="middle">Proxicast ANT-122-S02</text>

  <rect x="330" y="430" width="160" height="25" class="box"/>
  <text x="410" y="448" class="component" text-anchor="middle">2x SMA pigtails (int.)</text>

  <!-- Modem to antenna -->
  <line x1="270" y1="650" x2="310" y2="650" class="wire-usb"/>
  <line x1="310" y1="650" x2="310" y2="443" class="wire-rf"/>
  <line x1="310" y1="443" x2="330" y2="443" class="wire-rf"/>
  <text x="313" y="550" class="component-detail" fill="#f80">RF</text>

  <!-- ==================== -->
  <!-- SENSORS -->
  <!-- ==================== -->
  <rect x="310" y="485" width="200" height="140" class="box-sensor"/>
  <text x="410" y="510" class="section-title" text-anchor="middle">SENSORS</text>

  <!-- SHT40 -->
  <rect x="330" y="525" width="85" height="40" class="box"/>
  <text x="372" y="545" class="component" text-anchor="middle">SHT40</text>
  <text x="372" y="558" class="component-detail" text-anchor="middle">I2C (inside)</text>

  <!-- DS18B20 -->
  <rect x="425" y="525" width="70" height="40" class="box"/>
  <text x="460" y="545" class="component" text-anchor="middle">DS18B20</text>
  <text x="460" y="558" class="component-detail" text-anchor="middle">1-Wire (out)</text>

  <!-- Rain gauge -->
  <rect x="330" y="575" width="165" height="40" class="box"/>
  <text x="412" y="593" class="component" text-anchor="middle">Hydreon RG-15</text>
  <text x="412" y="608" class="component-detail" text-anchor="middle">UART | 12V | outdoor</text>

  <!-- Sensor connections from G469 -->
  <line x1="270" y1="545" x2="290" y2="545" class="wire-i2c"/>
  <line x1="290" y1="545" x2="330" y2="545" class="wire-i2c"/>
  <text x="295" y="540" class="component-detail" fill="#a0a">I2C</text>

  <line x1="270" y1="555" x2="280" y2="555" class="wire-1wire"/>
  <line x1="280" y1="555" x2="280" y2="545" class="wire-1wire"/>
  <line x1="280" y1="545" x2="280" y2="545" class="wire-1wire"/>
  <line x1="280" y1="555" x2="425" y2="555" class="wire-1wire"/>
  <text x="350" y="568" class="component-detail" fill="#c60">1-Wire</text>

  <line x1="270" y1="565" x2="275" y2="565" class="wire-uart"/>
  <line x1="275" y1="565" x2="275" y2="595" class="wire-uart"/>
  <line x1="275" y1="595" x2="330" y2="595" class="wire-uart"/>
  <text x="280" y="590" class="component-detail" fill="#069">UART</text>

  <!-- ==================== -->
  <!-- STATUS & UI -->
  <!-- ==================== -->
  <rect x="310" y="640" width="200" height="100" class="box-ui"/>
  <text x="410" y="665" class="section-title" text-anchor="middle">STATUS &amp; MAINTENANCE</text>

  <!-- LEDs -->
  <circle cx="345" cy="695" r="8" class="led-green"/>
  <text x="358" y="699" class="component">G17</text>
  <circle cx="395" cy="695" r="8" class="led-yellow"/>
  <text x="408" y="699" class="component">Y27</text>
  <circle cx="445" cy="695" r="8" class="led-red"/>
  <text x="458" y="699" class="component">R22</text>

  <!-- Button -->
  <rect x="345" y="715" width="140" height="20" class="box"/>
  <text x="415" y="730" class="component-detail" text-anchor="middle">IP67 Button (GPIO 23, 3s hold)</text>

  <!-- GPIO to UI -->
  <line x1="270" y1="555" x2="290" y2="555" class="wire-gpio"/>
  <line x1="290" y1="555" x2="290" y2="695" class="wire-gpio"/>
  <line x1="290" y1="695" x2="310" y2="695" class="wire-gpio"/>
  <text x="293" y="650" class="component-detail" fill="#0a0">GPIO</text>

  <!-- ==================== -->
  <!-- HUMIDITY CONTROL -->
  <!-- ==================== -->
  <rect x="530" y="355" width="195" height="170" class="box-heater"/>
  <text x="627" y="380" class="section-title" text-anchor="middle">HUMIDITY CONTROL</text>

  <!-- Enclosure Heater -->
  <rect x="550" y="395" width="155" height="40" class="box"/>
  <text x="627" y="415" class="component" text-anchor="middle">PTC Heater 15W</text>
  <text x="627" y="430" class="component-detail" text-anchor="middle">Enclosure (hygrostat)</text>

  <!-- Camera Heaters -->
  <rect x="550" y="445" width="155" height="40" class="box"/>
  <text x="627" y="465" class="component" text-anchor="middle">PTC Heater 5-7W x2</text>
  <text x="627" y="480" class="component-detail" text-anchor="middle">Camera (thermostat)</text>

  <!-- DS18B20 feeds PTC control -->
  <rect x="550" y="495" width="155" height="20" class="box"/>
  <text x="627" y="510" class="component-detail" text-anchor="middle">DS18B20 → dew point → PTC ctrl</text>

  <!-- Heater power from 12V bus -->
  <line x1="660" y1="190" x2="720" y2="190" class="wire-12v"/>
  <line x1="720" y1="190" x2="720" y2="300" class="wire-12v"/>
  <line x1="720" y1="300" x2="720" y2="415" class="wire-12v"/>
  <line x1="720" y1="415" x2="705" y2="415" class="wire-12v" marker-end="url(#arr-org)"/>
  <text x="724" y="355" class="component-detail" fill="#f60">12V</text>

  <!-- Gore Vent -->
  <rect x="530" y="540" width="195" height="35" class="box"/>
  <text x="627" y="562" class="component" text-anchor="middle">2x Gore M12 Protective Vent</text>

  <!-- ==================== -->
  <!-- POE CAMERA SYSTEM -->
  <!-- ==================== -->
  <rect x="530" y="595" width="195" height="145" class="box-camera"/>
  <text x="627" y="620" class="section-title" text-anchor="middle">PoE CAMERA SYSTEM</text>

  <!-- PoE Switch -->
  <rect x="550" y="635" width="155" height="50" class="box"/>
  <text x="627" y="657" class="component" text-anchor="middle">LINOVISION PoE Switch</text>
  <text x="627" y="672" class="component-detail" text-anchor="middle">Industrial Gigabit, 12V input</text>

  <!-- Ethernet uplink to Pi -->
  <rect x="550" y="695" width="155" height="30" class="box"/>
  <text x="627" y="715" class="component" text-anchor="middle">Uplink → Pi ETH</text>

  <!-- Power to PoE switch from 12V bus -->
  <line x1="720" y1="415" x2="720" y2="660" class="wire-12v"/>
  <line x1="720" y1="660" x2="705" y2="660" class="wire-12v" marker-end="url(#arr-org)"/>
  <text x="724" y="550" class="component-detail" fill="#f60">12V</text>

  <!-- Ethernet from Pi to PoE uplink -->
  <line x1="270" y1="490" x2="295" y2="490" class="wire-eth"/>
  <line x1="295" y1="490" x2="295" y2="760" class="wire-eth"/>
  <line x1="295" y1="760" x2="550" y2="760" class="wire-eth"/>
  <line x1="550" y1="760" x2="550" y2="725" class="wire-eth"/>
  <line x1="550" y1="725" x2="550" y2="710" class="wire-eth" marker-end="url(#arr-teal)"/>
  <text x="370" y="755" class="component-detail" fill="#069">ETH (data only)</text>

  <!-- ==================== -->
  <!-- OUTDOOR CAMERAS -->
  <!-- ==================== -->
  <rect x="770" y="300" width="380" height="440" class="enclosure-outdoor"/>
  <text x="790" y="325" class="section-title">OUTDOOR - Camera Assemblies</text>

  <!-- Camera 1 -->
  <rect x="790" y="345" width="340" height="130" class="box-camera"/>
  <text x="960" y="370" class="section-title" text-anchor="middle">CAMERA 1 - ANNKE C1200</text>

  <rect x="810" y="385" width="150" height="50" class="box"/>
  <text x="885" y="407" class="component" text-anchor="middle">12MP PoE (IP67)</text>
  <text x="885" y="422" class="component-detail" text-anchor="middle">134deg | Built-in IR</text>
  <text x="885" y="434" class="component-detail" text-anchor="middle">RTSP | ~12W</text>

  <rect x="975" y="385" width="140" height="50" class="box"/>
  <text x="1045" y="407" class="component" text-anchor="middle">PTC Heater 5-7W</text>
  <text x="1045" y="422" class="component-detail" text-anchor="middle">w/ thermostat</text>

  <rect x="810" y="445" width="300" height="25" class="box"/>
  <text x="960" y="462" class="component" text-anchor="middle">Cat6 outdoor shielded + IP68 RJ45 coupler</text>

  <!-- Camera 2 -->
  <rect x="790" y="490" width="340" height="130" class="box-camera"/>
  <text x="960" y="515" class="section-title" text-anchor="middle">CAMERA 2 - ANNKE C1200</text>

  <rect x="810" y="530" width="150" height="50" class="box"/>
  <text x="885" y="552" class="component" text-anchor="middle">12MP PoE (IP67)</text>
  <text x="885" y="567" class="component-detail" text-anchor="middle">134deg | Built-in IR</text>
  <text x="885" y="579" class="component-detail" text-anchor="middle">RTSP | ~12W</text>

  <rect x="975" y="530" width="140" height="50" class="box"/>
  <text x="1045" y="552" class="component" text-anchor="middle">PTC Heater 5-7W</text>
  <text x="1045" y="567" class="component-detail" text-anchor="middle">w/ thermostat</text>

  <rect x="810" y="590" width="300" height="25" class="box"/>
  <text x="960" y="607" class="component" text-anchor="middle">Cat6 outdoor shielded + IP68 RJ45 coupler</text>

  <!-- Camera mount info -->
  <rect x="790" y="635" width="340" height="45" class="box"/>
  <text x="960" y="657" class="component" text-anchor="middle">Hikvision DS-1275ZJ vertical mount plates (x2)</text>
  <text x="960" y="672" class="component-detail" text-anchor="middle">Stainless steel, pole-mounted</text>

  <!-- Rain gauge (outdoor) -->
  <rect x="790" y="695" width="340" height="35" class="box-sensor"/>
  <text x="960" y="717" class="component" text-anchor="middle">Hydreon RG-15 Rain Gauge (pole-mounted, outdoor)</text>

  <!-- PoE connections to cameras -->
  <line x1="705" y1="660" x2="745" y2="660" class="wire-eth"/>
  <line x1="745" y1="660" x2="745" y2="410" class="wire-eth"/>
  <line x1="745" y1="410" x2="810" y2="410" class="wire-eth" marker-end="url(#arr-teal)"/>
  <text x="748" y="500" class="component-detail" fill="#069">PoE</text>
  <line x1="745" y1="555" x2="810" y2="555" class="wire-eth" marker-end="url(#arr-teal)"/>

  <!-- Heater power to cameras -->
  <line x1="720" y1="465" x2="750" y2="465" class="wire-12v"/>
  <line x1="750" y1="465" x2="750" y2="400" class="wire-12v"/>
  <line x1="750" y1="400" x2="975" y2="400" class="wire-12v" marker-end="url(#arr-org)"/>
  <line x1="750" y1="545" x2="975" y2="545" class="wire-12v" marker-end="url(#arr-org)"/>
  <text x="850" y="395" class="component-detail" fill="#f60">12V (heaters)</text>

  <!-- ==================== -->
  <!-- ENCLOSURE CALLOUT -->
  <!-- ==================== -->
  <rect x="1170" y="300" width="290" height="170" class="box" fill="#fffde7"/>
  <text x="1190" y="325" class="section-title">SPLIT ENCLOSURE DESIGN</text>
  <text x="1190" y="350" class="component">Electronics Box (VEVOR IP66):</text>
  <text x="1190" y="368" class="component-detail">- Pi, PoE switch, PSU, modem</text>
  <text x="1190" y="383" class="component-detail">- PTC heater + hygrostat</text>
  <text x="1190" y="398" class="component-detail">- Gore M12 vents</text>
  <text x="1190" y="420" class="component">Battery Box (separate, external):</text>
  <text x="1190" y="438" class="component-detail">- LiFePO4 100Ah + charger</text>
  <text x="1190" y="453" class="component-detail">- Victron BatteryProtect</text>
  <text x="1190" y="468" class="component-detail">- Short 12V cable to electronics</text>

  <!-- ==================== -->
  <!-- WALL MOUNT CALLOUT -->
  <!-- ==================== -->
  <rect x="1170" y="485" width="290" height="110" class="box" fill="#fffde7"/>
  <text x="1190" y="510" class="section-title">WALL MOUNT</text>
  <text x="1190" y="535" class="component">SS L-brackets bolted to concrete</text>
  <text x="1190" y="555" class="component">SS banding secures enclosure</text>
  <text x="1190" y="575" class="component">EPDM pads for galvanic isolation</text>
  <text x="1190" y="590" class="component-detail">M8 concrete wedge anchors</text>

  <!-- ==================== -->
  <!-- LEGEND -->
  <!-- ==================== -->
  <rect x="1170" y="610" width="290" height="125" class="box" fill="#fff"/>
  <text x="1315" y="635" class="section-title" text-anchor="middle">LEGEND</text>

  <line x1="1190" y1="655" x2="1230" y2="655" class="wire-ac"/>
  <text x="1240" y="660" class="component-detail">220V AC</text>
  <line x1="1190" y1="672" x2="1230" y2="672" class="wire-12v"/>
  <text x="1240" y="677" class="component-detail">12V DC</text>
  <line x1="1190" y1="689" x2="1230" y2="689" class="wire-5v"/>
  <text x="1240" y="694" class="component-detail">5V DC</text>
  <line x1="1190" y1="706" x2="1230" y2="706" class="wire-eth"/>
  <text x="1240" y="711" class="component-detail">Ethernet/PoE</text>
  <line x1="1190" y1="723" x2="1230" y2="723" class="wire-usb"/>
  <text x="1240" y="728" class="component-detail">USB</text>
  <line x1="1340" y1="655" x2="1380" y2="655" class="wire-gpio"/>
  <text x="1390" y="660" class="component-detail">GPIO</text>
  <line x1="1340" y1="672" x2="1380" y2="672" class="wire-i2c"/>
  <text x="1390" y="677" class="component-detail">I2C</text>
  <line x1="1340" y1="689" x2="1380" y2="689" class="wire-1wire"/>
  <text x="1390" y="694" class="component-detail">1-Wire</text>
  <line x1="1340" y1="706" x2="1380" y2="706" class="wire-rf"/>
  <text x="1390" y="711" class="component-detail">RF</text>

  <!-- ==================== -->
  <!-- ASSEMBLY NOTES -->
  <!-- ==================== -->
  <rect x="30" y="815" width="1130" height="220" class="box" fill="#fffde7"/>
  <text x="50" y="840" class="section-title">ASSEMBLY NOTES</text>

  <text x="50" y="863" class="component">1. Stack Order: Pi 5 (bottom) + Witty Pi 5 HAT+ (middle) + Geekworm G469 (top) - DIN rail clip mount</text>
  <text x="50" y="883" class="component">2. Apply MG 422C silicone conformal coat to: Pi 5, Witty Pi 5, G469. Mask connectors/headers</text>
  <text x="50" y="903" class="component">3. DDR-60G-5: Regulated 5V for compute (12V bus varies with battery charge state)</text>
  <text x="50" y="923" class="component">4. LINOVISION PoE switch: Native 12V input, powers both cameras continuously (not duty-cycled)</text>
  <text x="50" y="943" class="component">5. PTC heaters: Self-regulating. Enclosure 15W with hygrostat (>70%RH). Camera 5-7W with thermostat</text>
  <text x="50" y="963" class="component">6. DS18B20 (outside) feeds dew point calculation → controls PTC heaters above dew point</text>
  <text x="50" y="983" class="component">7. Pi 5 built-in RTC (ML-2020 coin cell) is primary. Witty Pi 5 provides backup scheduling/power mgmt</text>
  <text x="50" y="1003" class="component">8. Battery box separate from electronics. Short 12V DC cable run between boxes</text>
  <text x="50" y="1023" class="component">9. Victron BatteryProtect: LVD @ 11.5V disconnect, 12.8V reconnect, prevents deep discharge</text>

  <!-- ==================== -->
  <!-- GPIO PIN TABLE -->
  <!-- ==================== -->
  <rect x="30" y="1045" width="570" height="200" class="box" fill="#fff"/>
  <text x="50" y="1070" class="section-title">GPIO PIN ASSIGNMENTS</text>

  <text x="50" y="1092" class="component" font-family="monospace">GPIO  2  SDA        I2C      SHT40 sensor (0x44)</text>
  <text x="50" y="1108" class="component" font-family="monospace">GPIO  3  SCL        I2C      SHT40 sensor</text>
  <text x="50" y="1124" class="component" font-family="monospace">GPIO  4  Witty Pi   Resrvd   Backup scheduling interrupt</text>
  <text x="50" y="1140" class="component" font-family="monospace">GPIO 14  UART TX    Serial   To Hydreon RG-15 RX</text>
  <text x="50" y="1156" class="component" font-family="monospace">GPIO 15  UART RX    Serial   From Hydreon RG-15 TX</text>
  <text x="50" y="1172" class="component" font-family="monospace">GPIO 17  Green LED  Output   System OK</text>
  <text x="50" y="1188" class="component" font-family="monospace">GPIO 22  Red LED    Output   Error</text>
  <text x="50" y="1204" class="component" font-family="monospace">GPIO 23  Button     Input    Maintenance mode (3s hold)</text>
  <text x="50" y="1220" class="component" font-family="monospace">GPIO 24  DS18B20    1-Wire   Outside temp (4.7k pull-up)</text>
  <text x="50" y="1236" class="component" font-family="monospace">GPIO 27  Yellow LED Output   Working/uploading</text>

  <!-- ==================== -->
  <!-- POWER BUDGET -->
  <!-- ==================== -->
  <rect x="620" y="1045" width="290" height="200" class="box" fill="#fffde7"/>
  <text x="765" y="1070" class="section-title" text-anchor="middle">POWER BUDGET</text>

  <text x="640" y="1095" class="component">Raspberry Pi 5: 15W</text>
  <text x="640" y="1115" class="component">Quectel modem: 5W</text>
  <text x="640" y="1135" class="component">2x PoE cameras: 24W</text>
  <text x="640" y="1155" class="component">PTC heaters (avg): 15W</text>
  <text x="640" y="1175" class="component">PoE switch + misc: 3W</text>
  <text x="640" y="1200" class="section-title">TOTAL: ~62W</text>
  <text x="640" y="1222" class="component-detail">100Ah @ 12V = 1200Wh</text>
  <text x="640" y="1237" class="component-detail">Backup: ~19 hours (no AC, heaters off)</text>

  <!-- ==================== -->
  <!-- FUSE SCHEDULE -->
  <!-- ==================== -->
  <rect x="930" y="1045" width="530" height="200" class="box" fill="#fff"/>
  <text x="1195" y="1070" class="section-title" text-anchor="middle">FUSE SCHEDULE</text>

  <text x="950" y="1095" class="component">AC input: 10A MCB (miniature circuit breaker)</text>
  <text x="950" y="1115" class="component">AC surge: Type 2 SPD (Phoenix Contact)</text>
  <text x="950" y="1135" class="component">Compute (DDR-60G-5): 5A inline blade fuse</text>
  <text x="950" y="1155" class="component">PoE switch: 5A inline blade fuse</text>
  <text x="950" y="1175" class="component">Enclosure heater: 3A inline blade fuse</text>
  <text x="950" y="1195" class="component">Camera heaters: 2A per circuit</text>
  <text x="950" y="1215" class="component">LEDs: 330 Ohm series resistors</text>
  <text x="950" y="1235" class="component-detail">DDR-60G: built-in OCP/OVP | Victron BP: LVD protection</text>

  <!-- Footer -->
  <text x="750" y="1340" class="subtitle" text-anchor="middle">OpenRiverCam - Jakarta Site | Rev 2.0 | 2026-03-08</text>
</svg>
